<?xml version="1.0" encoding="utf-8"?>
<!-- Generator: Adobe Illustrator 21.0.0, SVG Export Plug-In . SVG Version: 6.00 Build 0)  -->
<svg version="1.1" id="Layer_1" xmlns="http://www.w3.org/2000/svg" xmlns:xlink="http://www.w3.org/1999/xlink" x="0px" y="0px"
	 viewBox="0 0 351 365" style="enable-background:new 0 0 351 365;" xml:space="preserve">
<style type="text/css">
	.st0{fill:url(#SVGID_1_);}
	.st1{fill:url(#SVGID_2_);}
	.st2{fill:url(#SVGID_3_);}
	.st3{fill:url(#SVGID_4_);}
	.st4{fill:url(#SVGID_5_);}
	.st5{fill:url(#SVGID_6_);}
	.st6{fill:url(#SVGID_7_);}
	.st7{fill:url(#SVGID_8_);}
	.st8{fill:url(#SVGID_9_);}
	.st9{fill-rule:evenodd;clip-rule:evenodd;fill:url(#SVGID_10_);}
	.st10{fill-rule:evenodd;clip-rule:evenodd;fill:#00682A;}
	.st11{fill-rule:evenodd;clip-rule:evenodd;fill:#D6EE82;}
	.st12{fill-rule:evenodd;clip-rule:evenodd;fill:#FFFFFF;}
	.st13{fill-rule:evenodd;clip-rule:evenodd;fill:#52B144;}
	.st14{fill-rule:evenodd;clip-rule:evenodd;fill:url(#SVGID_11_);}
</style>
<g id="Layer_1_1_">
</g>
<g>
	<g>
		<g>
			<radialGradient id="SVGID_1_" cx="139.5585" cy="244.5206" r="100.2963" gradientUnits="userSpaceOnUse">
				<stop  offset="0" style="stop-color:#B8E4EF"/>
				<stop  offset="1" style="stop-color:#4592C2"/>
			</radialGradient>
			<path class="st0" d="M194.5,280.5c-27.6-31.2-62.2-46.6-81.9-69.3c-19.7-22.7-31.3-46.9-31.3-79.6c-49.7,83-20.7,154.9-1.3,179.8
				c20,25.7,73.2,62.3,138.5,38.3c2.4-0.9,4.6-1.8,6.9-2.8l0,0C225.3,346.9,222.1,311.7,194.5,280.5z"/>
			<radialGradient id="SVGID_2_" cx="152.8454" cy="266.0049" r="213.5172" gradientUnits="userSpaceOnUse">
				<stop  offset="0" style="stop-color:#B9E4E8"/>
				<stop  offset="8.482704e-02" style="stop-color:#B1DEE6"/>
				<stop  offset="0.218" style="stop-color:#9ACFDF"/>
				<stop  offset="0.382" style="stop-color:#76B7D4"/>
				<stop  offset="0.4831" style="stop-color:#5CA5CC"/>
				<stop  offset="0.5423" style="stop-color:#589AC7"/>
				<stop  offset="0.6466" style="stop-color:#4C7CB8"/>
				<stop  offset="0.7826" style="stop-color:#3A4DA1"/>
				<stop  offset="0.8596" style="stop-color:#2E2F92"/>
			</radialGradient>
			<path class="st1" d="M112.6,211.2c-7-8.1-13.1-16.4-17.9-25.3c-8.5,15.4-13.4,33.2-13.4,52.1c0,59.7,48.4,108.1,108.1,108.1
				c12.2,0,23.9-2,34.8-5.7c-2.3-11.6-9.4-36.8-29.8-59.9C166.9,249.2,132.3,233.9,112.6,211.2z"/>
			<radialGradient id="SVGID_3_" cx="132.0345" cy="120.7728" r="174.1977" gradientUnits="userSpaceOnUse">
				<stop  offset="0" style="stop-color:#B8E4EF"/>
				<stop  offset="1" style="stop-color:#4592C2"/>
			</radialGradient>
			<path class="st2" d="M136.7,241.7c50.2,31.8,79.9,63.1,88.6,105.1c0,0-3.3-35.2-30.8-66.4c-27.6-31.2-62.2-46.6-81.9-69.3
				c-19.7-22.7-31.3-46.9-31.3-79.6c-2.2,3.7-4.2,7.3-6.2,11C76.6,185.7,101.9,217.7,136.7,241.7z"/>
		</g>
		<g>
			<linearGradient id="SVGID_4_" gradientUnits="userSpaceOnUse" x1="116.628" y1="93.7977" x2="274.7683" y2="226.9686">
				<stop  offset="0.1798" style="stop-color:#59A522"/>
				<stop  offset="0.3078" style="stop-color:#73B525"/>
				<stop  offset="0.5046" style="stop-color:#96C929"/>
				<stop  offset="0.6911" style="stop-color:#AFD82C"/>
				<stop  offset="0.8612" style="stop-color:#BEE12D"/>
				<stop  offset="1" style="stop-color:#C3E42E"/>
			</linearGradient>
			<path class="st3" d="M256.6,245.6c-11.3-29.6-29.6-45-44.6-56.3c-16.8-11.7-61.5-46.1-62.6-96.6c-1.1-50.5,41.4-83.6,41.4-83.6
				s-87.9,57.8-90.5,131.6c0,39.1,26.7,62.6,26.7,62.6s18.8,17.5,40.1,29.4c19.8,13,73.8,61.6,69,108.9c0,0,0,0,0,0
				C236.8,340.6,276.1,298.1,256.6,245.6z"/>
			<linearGradient id="SVGID_5_" gradientUnits="userSpaceOnUse" x1="115.6627" y1="265.6454" x2="251.9146" y2="265.6454">
				<stop  offset="5.617980e-03" style="stop-color:#184114"/>
				<stop  offset="1" style="stop-color:#84C51B"/>
			</linearGradient>
			<path class="st4" d="M251.9,297.4c0,0-0.2-43.2-58.7-65.5c-51.1-17.8-57.6-22.5-77.5-42c5.9,8.7,11.2,13.5,11.2,13.5
				s18.8,17.5,40.1,29.4c19.8,13,73.8,61.6,69,108.9C242.7,330.8,249.4,319.9,251.9,297.4z"/>
			<linearGradient id="SVGID_6_" gradientUnits="userSpaceOnUse" x1="115.6627" y1="243.608" x2="252.1934" y2="243.608">
				<stop  offset="0.1798" style="stop-color:#59A522"/>
				<stop  offset="0.3078" style="stop-color:#73B525"/>
				<stop  offset="0.5046" style="stop-color:#96C929"/>
				<stop  offset="0.6911" style="stop-color:#AFD82C"/>
				<stop  offset="0.8612" style="stop-color:#BEE12D"/>
				<stop  offset="1" style="stop-color:#C3E42E"/>
			</linearGradient>
			<path class="st5" d="M251.9,297.4c0,0-0.2-43.2-58.7-65.5c-51.1-17.8-57.6-22.5-77.5-42c40.8,34,58.3,23,99.3,47.2
				C241.6,252.7,254.3,272.7,251.9,297.4z"/>
		</g>
		<g>
			<linearGradient id="SVGID_7_" gradientUnits="userSpaceOnUse" x1="161.2203" y1="165.8105" x2="296.7827" y2="165.8105">
				<stop  offset="0.1798" style="stop-color:#59A522"/>
				<stop  offset="0.3078" style="stop-color:#73B525"/>
				<stop  offset="0.5046" style="stop-color:#96C929"/>
				<stop  offset="0.6911" style="stop-color:#AFD82C"/>
				<stop  offset="0.8612" style="stop-color:#BEE12D"/>
				<stop  offset="1" style="stop-color:#C3E42E"/>
			</linearGradient>
			<path class="st6" d="M292.7,203.5c-9.7-31.2-24.6-51.4-56.4-73.7c-31.8-22.3-50-55.8-47.8-77.1c2.3-21.3,5.6-26.1,5.6-26.1
				s-11.1,7.8-22.2,25c-11.1,17.2-10.7,38.4-10.7,38.4s-1,30.6,30.9,64.7c37.7,32.8,45.2,36.4,59.8,53
				c14.8,15.9,29.9,34.4,27.6,63.7c-2.1,27.7-4.5,32.9-4.8,33.4C298.5,269,300.4,224.6,292.7,203.5z"/>
			<linearGradient id="SVGID_8_" gradientUnits="userSpaceOnUse" x1="210.0882" y1="237.5374" x2="292.6266" y2="237.5374">
				<stop  offset="5.617980e-03" style="stop-color:#184114"/>
				<stop  offset="1" style="stop-color:#84C51B"/>
			</linearGradient>
			<path class="st7" d="M292.6,263.9C292.6,263.9,292.6,263.9,292.6,263.9c-3.4,13.8-9.2,28-17.8,41c0.4-0.8,2.7-6.5,4.8-33.4
				c2.2-29.4-12.9-47.8-27.6-63.7c-11.9-13.5-19.1-18.4-41.9-37.6c15.2,12,39.6,18.6,39.6,18.6s11.2,2.7,20.9,11.3
				c9.8,8.6,13.4,18.8,17.3,30.5C291.7,242.2,292.6,263.3,292.6,263.9z"/>
			<linearGradient id="SVGID_9_" gradientUnits="userSpaceOnUse" x1="181.1655" y1="202.7038" x2="292.9951" y2="202.7038">
				<stop  offset="0.1798" style="stop-color:#59A522"/>
				<stop  offset="0.3078" style="stop-color:#73B525"/>
				<stop  offset="0.5046" style="stop-color:#96C929"/>
				<stop  offset="0.6911" style="stop-color:#AFD82C"/>
				<stop  offset="0.8612" style="stop-color:#BEE12D"/>
				<stop  offset="1" style="stop-color:#C3E42E"/>
			</linearGradient>
			<path class="st8" d="M292.6,263.9c0-0.6-0.9-21.7-4.8-33.2c-3.9-11.7-7.5-22-17.3-30.5c-9.8-8.6-20.9-11.3-20.9-11.3
				s-24.4-6.7-39.6-18.6c0,0,0,0,0,0c-5.1-4.3-11-9.4-17.9-15.4c-4.2-4.5-7.8-8.9-11-13.2c0.8,0.8,27.3,26.3,45,33.7
				c18,7.6,29.1,12.5,38.3,18.5C273.7,199.8,296.1,218.2,292.6,263.9z"/>
		</g>
	</g>
	<g>
		<radialGradient id="SVGID_10_" cx="194.6164" cy="199.9392" r="7.048" gradientUnits="userSpaceOnUse">
			<stop  offset="0" style="stop-color:#FFFFFF"/>
			<stop  offset="1" style="stop-color:#99CF16"/>
		</radialGradient>
		<path class="st9" d="M182.1,199.1c-0.6-6.1,7.9-8.2,11.9-6C219,207.1,183.9,217.4,182.1,199.1z"/>
		<path class="st10" d="M200.1,197.4c10.6,10.3-10.9,16.6-16.7,6.1c0.1,0.2,4.1,6,11.8,4.1C203.1,205.7,203,201.3,200.1,197.4z"/>
		<path class="st11" d="M199.4,202.1c0,0,2-1.7-1.1-5c-3-3.2-7.9-4.8-11-2.8c-3.1,2-1.5,5.3,0.7,3.9c2.3-1.4,5.5-0.4,5.2,0.9
			c-0.3,1.3-2.6,2.3-1.2,4.3c1.3,2,5.9,1.1,6.7-0.1C199.4,202.1,199.4,202.1,199.4,202.1z"/>
		<path class="st12" d="M195,196c-1.5-1.6-3.8-2.4-5.4-1.6c-1.8,0.9-1.2,2.8,0.2,2.2c0.6-0.3,3.6-0.3,2.7,1.1
			C193,197.7,194.7,196.4,195,196z"/>
		<path class="st12" d="M198.1,201.2c1-0.7,0.1-2.2-0.3-2.8c-0.9,0.8-2.6,2.1-3.9,2.1c-0.9,1.7,2.9,2.5,3.7,1.4
			C198.1,201.2,198.1,201.2,198.1,201.2z"/>
		<path class="st13" d="M196.9,205.8c0,0-2.9,2.8-7.7-0.4c-4.8-3.1-5.1-5.1-5.6-6.8c-0.5-1.7-1.9,0.7,0.4,4.2
			c2.3,3.5,4.8,3.7,7.2,4.4C193.6,207.9,196.9,205.8,196.9,205.8z"/>
	</g>
	<g>
		<radialGradient id="SVGID_11_" cx="246.0434" cy="162.1606" r="5.3156" gradientUnits="userSpaceOnUse">
			<stop  offset="0" style="stop-color:#FFFFFF"/>
			<stop  offset="1" style="stop-color:#99CF16"/>
		</radialGradient>
		<path class="st14" d="M236.6,161.5c-0.4-4.6,6-6.2,9-4.5C264.4,167.6,238,175.3,236.6,161.5z"/>
		<path class="st10" d="M250.2,160.3c8,7.8-8.2,12.5-12.6,4.6c0.1,0.1,3.1,4.6,8.9,3.1C252.4,166.5,252.3,163.2,250.2,160.3z"/>
		<path class="st11" d="M249.7,163.8c0,0,1.5-1.3-0.8-3.8c-2.3-2.4-6-3.6-8.3-2.1c-2.4,1.5-1.2,4,0.6,2.9c1.7-1.1,4.1-0.3,3.9,0.7
			c-0.2,1-1.9,1.7-0.9,3.2c1,1.5,4.5,0.8,5,0C249.7,163.8,249.7,163.8,249.7,163.8z"/>
		<path class="st12" d="M246.4,159.2c-1.1-1.2-2.8-1.8-4.1-1.2c-1.4,0.7-0.9,2.1,0.1,1.6c0.5-0.2,2.7-0.2,2,0.8
			C244.9,160.5,246.1,159.5,246.4,159.2z"/>
		<path class="st12" d="M248.6,163.1c0.7-0.5,0.1-1.7-0.3-2.1c-0.7,0.6-1.9,1.5-2.9,1.6c-0.7,1.3,2.2,1.9,2.8,1
			C248.6,163.1,248.6,163.1,248.6,163.1z"/>
		<path class="st13" d="M247.8,166.6c0,0-2.2,2.1-5.8-0.3c-3.6-2.3-3.8-3.9-4.2-5.1c-0.4-1.3-1.4,0.5,0.3,3.1
			c1.8,2.6,3.7,2.8,5.4,3.3C245.3,168.2,247.8,166.6,247.8,166.6z"/>
	</g>
</g>
</svg>
